<svg xmlns="http://www.w3.org/2000/svg" width="200" height="56" viewBox="0 0 200 56"><rect width="100%" height="100%" fill="#EEE"/><path fill="#31343C" d="M56.655 26.01c3.63-.68 5.2-2.73 5.2-4.57 0-2.4-2.14-4.09-6.43-4.09-.66 0-2.38.05-4.09.05-1.46 0-3.07-.03-3.94-.08v.52c1.63.08 1.94.35 1.94 2.24v12.9c0 1.89-.29 2.15-1.94 2.23v.52c.87-.05 2.46-.08 3.99-.08 2.21 0 3.83.08 4.64.08 4.45 0 7.17-1.76 7.17-5.04 0-2.11-1.67-4.27-6.54-4.63Zm-1.57-8.17c1.84 0 2.55 1.32 2.55 3.87 0 2.26-.6 4.24-3.05 4.24h-1.11v-5.87c0-1.79.28-2.24 1.61-2.24Zm.18 17.29c-1.49 0-1.79-.34-1.79-2.15V26.4h1.09c3.08 0 4.31 1.54 4.31 4.18 0 2.92-1.07 4.55-3.61 4.55Zm14.42-19.75c-1.08.25-2.35.35-3.8.35-.52 0-1.06-.02-1.61-.07v.54c1.26 0 1.66.74 1.66 2.3v14.82c0 1.45-.44 1.86-1.66 1.86v.55c.7-.03 2.25-.1 3.61-.1 1.34 0 2.8.07 3.46.1v-.55c-1.2 0-1.66-.41-1.66-1.86Zm9.25 6.54c-3.73 0-6.36 1.95-6.36 7.09 0 5.16 2.63 7.09 6.36 7.09 3.75 0 6.38-1.93 6.38-7.09 0-5.14-2.63-7.09-6.38-7.09Zm0 .52c1.43 0 2.45 1.93 2.45 6.57 0 4.66-1.02 6.57-2.45 6.57-1.41 0-2.43-1.91-2.43-6.57 0-4.64 1.02-6.57 2.43-6.57Zm11.66 9.96c-.7 0-1.07-.26-1.07-.86 0-.66.61-1.08 1.49-1.6.67.18 1.43.25 2.24.25 3.2 0 5.6-1.28 5.6-4.13 0-2.14-1.32-3.38-3.31-3.89-.01-.14-.01-.28-.01-.42 0-.12 0-.25.01-.38.08-.57.2-1.01.38-1.32.33.92.84 1.46 1.94 1.46 1.02 0 1.78-.63 1.78-1.51 0-.98-.79-1.59-1.89-1.59-1.55 0-2.3 1.04-2.46 2.4-.09.42-.12.85-.09 1.29-.6-.12-1.26-.18-1.95-.18-3.2 0-5.58 1.27-5.58 4.14 0 1.95 1.12 3.17 2.85 3.74-2.47 1.17-3.31 2.18-3.31 3.66 0 2.07 1.92 2.41 2.91 2.41h.61c-1.39.95-3.94.85-3.94 2.5 0 1.24 1.84 2.25 5.77 2.25 5.16 0 7.52-2.92 7.52-5.42 0-2.12-1.62-2.8-3.51-2.8Zm2.66-10.01c1.08 0 1.74.89 1.74 3.67s-.66 3.67-1.74 3.67-1.74-.89-1.74-3.67.66-3.67 1.74-3.67Zm0 17.78c-1.63 0-2.92-.76-2.92-2.24 0-.56.28-1.48.89-2.06h4.47c1.18 0 1.5.38 1.5 1.08 0 2.04-1.84 3.22-3.94 3.22Zm14.11-11.88h1.38c6.13 0 7.77-3.3 7.77-5.81 0-3.03-2.36-5.13-7.2-5.13-.66 0-2.38.05-4.08.05-1.46 0-3.08-.03-3.95-.08v.52c1.64.08 1.94.35 1.94 2.24v12.9c0 1.89-.29 2.15-1.94 2.23v.52c1.13-.04 2.63-.08 4.12-.08 1.86 0 3.67.04 4.74.08v-.57c-2.31-.03-2.78-.31-2.78-2.34Zm1.61-10.45c2.36 0 3.23 1.64 3.23 4.92 0 2.65-.65 5.01-3.72 5.01h-1.12v-7.69c0-1.79.28-2.24 1.61-2.24Zm15.03 4.08c-3.73 0-6.36 1.95-6.36 7.09 0 5.16 2.63 7.09 6.36 7.09 3.75 0 6.38-1.93 6.38-7.09 0-5.14-2.63-7.09-6.38-7.09Zm0 .52c1.42 0 2.45 1.93 2.45 6.57 0 4.66-1.03 6.57-2.45 6.57-1.41 0-2.44-1.91-2.44-6.57 0-4.64 1.03-6.57 2.44-6.57Zm13.1-.52c-2.36 0-4.47 1.27-4.47 3.58 0 2.09 1.57 3.27 3.27 4.61 1.5 1.16 2.63 2.01 2.63 3.54 0 1.33-.93 1.85-1.83 1.85-2.19 0-3.19-1.97-3.51-4.78h-.56c0 2.62-.02 4.07-.1 5.19h.55c.13-.56.34-.93.63-.93.04 0 .08.01.12.03.37.11.73.3 1.2.54.59.32 1.4.55 2.44.55 2.68 0 4.93-1.49 4.93-3.86 0-2.06-1.37-3.18-3.11-4.46-1.6-1.19-3.2-2.05-3.2-3.62 0-1.06.76-1.67 1.76-1.67 2.22 0 3.07 2.11 3.34 4.02h.55c0-2.31.02-3.58.11-4.57h-.56c-.09.65-.3.96-.61.96-.14 0-.29-.07-.47-.18-.5-.33-1.65-.8-3.11-.8Zm12.15.38v-4.28c-1.08.58-2.28.83-3.74.84v3.44h-2.19v.52h2.19v8.77c0 1.82.19 2.87.94 3.63.58.59 1.43.88 2.6.88 1.92 0 2.98-1.12 3.55-2.67l-.43-.24c-.5 1.16-1.14 1.56-1.77 1.56-.77 0-1.15-.38-1.15-1.44V22.82h3.08v-.52Z"/></svg>